<svg xmlns="http://www.w3.org/2000/svg" viewBox="0 0 762 303" width="762" height="303" fill="none" overflow="hidden" aria-hidden="true">
  <!-- Identical paths to /Nasqo_Logo.svg; center zoom (edges clipped) reads larger in the tab -->
  <g transform="translate(381 151.5) scale(1.62) translate(-381 -151.5)">
    <path fill-rule="evenodd" clip-rule="evenodd" d="M460.423 111.617C451.173 114.213 427.474 110.928 422.486 115.523L373.833 189.211C374.211 191.931 328.8 259.152 321.678 270.41C317.496 277.02 305.868 292.915 305.38 300.82C344.978 301.995 385.319 302.155 425.551 301.679C445.517 301.442 465.515 301.441 485.474 301.144C505.649 300.843 519.603 295.488 530.263 285.51C538.635 277.674 548.472 261.359 555.321 250.74L620.208 149.759C623.723 144.357 623.525 141.592 628.842 143.439L629.374 145.29C629.642 148.493 629.114 146.604 631.035 147.004C631.076 150.875 631.026 149.889 633.617 151.122C633.193 153.257 632.621 153.06 634.619 152.444C634.417 156.168 633.882 154.555 635.856 154.657C635.351 156.779 634.804 156.494 636.845 156.097C636.613 159.533 636.032 157.998 638.137 158.096C637.602 160.252 637.063 159.911 639.157 159.624C638.783 163.08 638.243 161.335 640.481 161.934L639.157 159.624C639.858 157.326 640.422 157.646 638.137 158.096L636.845 156.097C637.562 153.876 638.088 154.189 635.856 154.657C636.206 149.792 635.957 153.378 634.619 152.444C635.256 150.417 635.681 150.783 633.617 151.122C633.169 147.822 633.32 148.812 631.035 147.004L629.374 145.29L628.842 143.439C624.84 138.511 631.671 132.087 636.966 122.987C639.845 118.041 639.36 119.058 642.026 117.117C642.244 117.315 642.561 117.577 642.691 117.694C642.82 117.809 643.203 118.144 643.345 118.272L645.179 119.984C644.743 122.318 643.958 122.269 645.978 121.638C646.061 126.057 645.953 122.878 647.278 123.67C646.377 126.29 646.02 125.531 648.898 125.531C648.654 122.818 649.515 123.012 647.278 123.67C647.68 120.028 648.074 121.804 645.978 121.638C646.563 119.428 647.231 119.657 645.179 119.984C644.031 115.122 641.592 114.861 636.2 114.645L587.907 113.998C577.747 113.762 567.729 113.295 558.008 113.205C549.296 113.126 532.81 115.094 528.612 109.944C523.221 101.298 538.391 92.1464 510.772 92.4296C504.989 92.4881 495.456 91.123 491.286 93.403C488.708 97.6366 491.077 106.093 489.085 111.89C482.375 114.242 466.876 114.036 460.423 111.616V111.617Z" fill="#48AB34"/>
    <path fill-rule="evenodd" clip-rule="evenodd" d="M169.587 3.26278L168.331 4.14598L167.489 5.5927L166.713 7.1287L162.897 12.4663C164.153 10.1364 164.985 9.44902 166.713 7.1287L167.489 5.5927L168.331 4.14598L169.587 3.26278C172.803 5.3575 178.014 13.9773 181.453 18.4346C186.43 24.8877 189.303 28.2093 183.567 36.8474C189.298 30.3885 191.06 33.1552 195.327 39.1091C198.496 43.5309 200.618 47.488 203.618 52.6547C217.461 76.4954 239.67 108.953 254.664 132.843C265.849 150.664 277.399 170.836 294.35 180.707C316.852 193.809 346.04 185.881 373.832 189.21L422.484 115.522C427.473 110.927 451.171 114.212 460.422 111.616L391.448 3.01029C387.877 -1.29723 376.198 0.294458 369.128 0.257979L191.801 0.385666C182.33 0.366466 175.352 -1.46714 169.587 3.26182V3.26278Z" fill="#02ABD8"/>
    <path fill-rule="evenodd" clip-rule="evenodd" d="M0.0139425 301.264C19.1083 303.044 137.96 301.551 167.62 301.544C195.648 301.537 223.677 301.571 251.704 301.56C265.483 301.553 276.884 299.208 285.383 292.802C290.042 289.289 301.25 275.438 302.532 266.945C280.758 264.357 78.0052 264.866 49.3435 266.506C32.0376 267.498 27.8798 267.243 16.0613 275.646C10.8715 279.338 -0.467028 291.131 0.0148917 301.265L0.0139425 301.264Z" fill="#0A4E96"/>
    <path fill-rule="evenodd" clip-rule="evenodd" d="M324.723 220.496C298.432 218.989 268.065 220.339 241.316 220.317L72.0073 220.294C57.3673 220.364 47.9065 221.865 38.6953 229.197C37.1977 230.389 17.5801 249.813 24.2349 253.765C29.2739 256.757 239.59 254.529 274.707 254.56C292.067 254.574 298.127 253.688 308.346 245.575C313.741 241.293 323.86 229.964 324.722 220.497L324.723 220.496Z" fill="#0A4E96"/>
    <path fill-rule="evenodd" clip-rule="evenodd" d="M168.333 4.14591L167.491 5.59263L166.714 7.12863C164.986 9.44895 164.155 10.1363 162.898 12.4662L162.013 13.8064C154.865 28.1488 142.939 44.1155 134.145 57.4825C124.336 72.3923 115.024 86.7087 106.091 100.974C100.047 110.628 52.406 182.366 51.8838 188.24C91.6854 192.445 110.73 150.333 126.648 125.931C133.528 115.383 175.251 51.6687 180.511 41.4601L181.381 40.3436L182.953 38.5187L183.568 36.8483C189.305 28.2102 186.432 24.8886 181.454 18.4355C178.014 13.9773 172.804 5.35839 169.588 3.26367L168.333 4.14687V4.14591Z" fill="#0A4E96"/>
    <path fill-rule="evenodd" clip-rule="evenodd" d="M628.842 143.44L629.374 145.291L631.035 147.004C633.32 148.813 633.169 147.823 633.616 151.123C635.68 150.784 635.256 150.418 634.619 152.445C635.957 153.379 636.206 149.793 635.856 154.658C638.088 154.19 637.562 153.877 636.845 156.098L638.137 158.097C640.422 157.647 639.857 157.327 639.157 159.625L640.48 161.934C641.72 167.937 682.578 230.136 690.198 242.039C706.481 267.468 721.262 302.195 761.938 300.582C760.426 291.463 691.703 190.159 677.523 168.309C673.789 162.554 651.83 127.359 648.899 125.534C646.021 125.534 646.378 126.291 647.279 123.673C645.953 122.882 646.062 126.061 645.979 121.64C643.959 122.271 644.744 122.32 645.18 119.987L643.346 118.275C643.204 118.147 642.821 117.813 642.692 117.697C642.562 117.579 642.245 117.317 642.027 117.12C639.361 119.061 639.846 118.043 636.967 122.99C631.672 132.09 624.841 138.514 628.843 143.442L628.842 143.44Z" fill="#1C7C33"/>
    <path fill-rule="evenodd" clip-rule="evenodd" d="M614.918 240.14L615.395 216.688L591.539 216.443C591.213 220.592 591.274 224.147 591.245 228.024C591.231 229.894 591.111 232.147 591.136 233.934C591.221 239.962 590.091 242.319 614.918 240.141V240.14Z" fill="#0A4E96"/>
    <path fill-rule="evenodd" clip-rule="evenodd" d="M158.91 117.479L158.924 122.084L158.972 131.491L182.658 131.855L182.812 107.892L176.834 107.779L175.682 107.796L158.937 107.854L158.91 117.479Z" fill="#0A4E96"/>
    <path fill-rule="evenodd" clip-rule="evenodd" d="M193.95 131.485L217.603 131.776L217.787 107.897L193.911 107.899L193.95 131.485Z" fill="#0A4E96"/>
    <path fill-rule="evenodd" clip-rule="evenodd" d="M626.502 240.136L650.156 240.116L650.323 216.446L626.882 216.346L626.502 240.136Z" fill="#0A4E96"/>
    <path fill-rule="evenodd" clip-rule="evenodd" d="M591.423 273.899L612.021 274.326C615.243 273.72 613.705 274.047 614.99 273.345L615.227 251.903L608.701 250.731C589.213 249.928 591.373 250.238 591.314 257.827C591.273 263.053 591.101 268.728 591.424 273.899H591.423Z" fill="#0A4E96"/>
    <path fill-rule="evenodd" clip-rule="evenodd" d="M626.512 274.317L650.19 274.48L650.227 250.971L626.979 250.765L626.512 274.317Z" fill="#0A4E96"/>
    <path fill-rule="evenodd" clip-rule="evenodd" d="M193.9 165.838L217.495 166.12L217.659 142.665L194.194 142.495L193.9 165.838Z" fill="#0A4E96"/>
    <path fill-rule="evenodd" clip-rule="evenodd" d="M160.269 165.43L182.598 166.168L182.712 142.624L159.246 142.534L159.151 162.356C159.608 164.464 159.697 164.432 160.27 165.43H160.269Z" fill="#0A4E96"/>
  </g>
</svg>
