<svg width="453" height="180" viewBox="0 0 453 180" fill="none" xmlns="http://www.w3.org/2000/svg">
<path fill-rule="evenodd" clip-rule="evenodd" d="M273.159 66.2196C267.671 67.7596 253.611 65.8106 250.652 68.5371L221.787 112.254C222.012 113.868 195.07 153.749 190.845 160.428C188.363 164.35 181.465 173.78 181.176 178.47C204.668 179.167 228.601 179.262 252.471 178.979C264.316 178.838 276.18 178.838 288.022 178.662C299.991 178.484 308.27 175.306 314.594 169.387C319.561 164.738 325.397 155.058 329.46 148.758L367.957 88.8483C370.042 85.6434 369.924 84.0031 373.079 85.0989L373.395 86.197C373.553 88.097 373.24 86.9767 374.38 87.2137C374.404 89.5106 374.374 88.9257 375.911 89.657C375.66 90.9237 375.321 90.8069 376.506 90.4413C376.386 92.6505 376.069 91.6937 377.24 91.7541C376.941 93.0134 376.616 92.8442 377.827 92.6084C377.689 94.6468 377.344 93.7367 378.593 93.7948C378.276 95.0734 377.956 94.8712 379.198 94.7009C378.977 96.7513 378.656 95.7164 379.984 96.0713L379.198 94.7009C379.614 93.338 379.949 93.5276 378.593 93.7948L377.827 92.6084C378.252 91.291 378.564 91.4767 377.24 91.7541C377.447 88.8682 377.3 90.9954 376.506 90.4413C376.884 89.239 377.136 89.456 375.911 89.657C375.646 87.6995 375.735 88.2867 374.38 87.2137L373.395 86.197L373.079 85.0989C370.705 82.1754 374.757 78.364 377.899 72.9653C379.607 70.031 379.319 70.6341 380.901 69.4825C381.03 69.5998 381.218 69.7553 381.295 69.8248C381.372 69.8932 381.599 70.0919 381.683 70.1677L382.771 71.1837C382.512 72.5683 382.047 72.5393 383.245 72.1645C383.294 74.7867 383.23 72.9004 384.017 73.3702C383.482 74.9245 383.27 74.4746 384.977 74.4746C384.833 72.865 385.344 72.9801 384.017 73.3702C384.255 71.2094 384.489 72.263 383.245 72.1645C383.592 70.8534 383.989 70.9895 382.771 71.1837C382.09 68.299 380.643 68.1441 377.444 68.0159L348.793 67.632C342.765 67.4919 336.822 67.2151 331.054 67.1616C325.886 67.1149 316.105 68.2825 313.614 65.2269C310.416 60.0975 319.416 54.668 303.03 54.836C299.599 54.8708 293.944 54.0609 291.47 55.4136C289.94 57.9253 291.346 62.9424 290.164 66.3813C286.183 67.7767 276.988 67.6548 273.159 66.219V66.2196Z" fill="#48AB34"/>
<path fill-rule="evenodd" clip-rule="evenodd" d="M100.613 1.93574L99.8677 2.45972L99.3682 3.31803L98.9075 4.22931L96.6435 7.39598C97.3891 6.01369 97.8823 5.6059 98.9075 4.22931L99.3682 3.31803L99.8677 2.45972L100.613 1.93574C102.521 3.17849 105.612 8.29246 107.652 10.9369C110.605 14.7654 112.309 16.736 108.906 21.8608C112.307 18.0289 113.352 19.6703 115.883 23.2026C117.763 25.826 119.023 28.1736 120.803 31.2389C129.015 45.3831 142.191 64.6395 151.087 78.8132C157.723 89.3857 164.575 101.354 174.632 107.21C187.982 114.983 205.298 110.279 221.787 112.254L250.651 68.5369C253.611 65.8105 267.671 67.7594 273.159 66.2194L232.238 1.78594C230.12 -0.769618 223.191 0.174696 218.996 0.153053L113.792 0.228807C108.173 0.217416 104.033 -0.870421 100.613 1.93517V1.93574Z" fill="#02ABD8"/>
<path fill-rule="evenodd" clip-rule="evenodd" d="M0.0082718 178.733C11.3366 179.789 81.8488 178.903 99.4455 178.899C116.074 178.895 132.703 178.915 149.33 178.908C157.506 178.904 164.27 177.513 169.312 173.712C172.076 171.629 178.725 163.411 179.486 158.372C166.568 156.837 46.2789 157.139 29.2745 158.112C19.0072 158.7 16.5405 158.549 9.52882 163.535C6.44985 165.725 -0.277078 172.721 0.00883495 178.734L0.0082718 178.733Z" fill="#0A4E96"/>
<path fill-rule="evenodd" clip-rule="evenodd" d="M192.651 130.815C177.053 129.921 159.037 130.722 143.168 130.709L42.7205 130.696C34.0349 130.737 28.422 131.628 22.9572 135.978C22.0687 136.685 10.43 148.208 14.3781 150.553C17.3676 152.328 142.143 151.006 162.978 151.025C173.277 151.033 176.873 150.507 182.935 145.694C186.136 143.153 192.139 136.432 192.651 130.816L192.651 130.815Z" fill="#0A4E96"/>
<path fill-rule="evenodd" clip-rule="evenodd" d="M99.8681 2.45945L99.3687 3.31776L98.9079 4.22903C97.8827 5.60563 97.3895 6.01342 96.6439 7.39571L96.1188 8.19079C91.878 16.6998 84.8025 26.1725 79.5854 34.1029C73.7658 42.9486 68.2412 51.4422 62.9415 59.9057C59.3557 65.633 31.0913 108.194 30.7815 111.679C54.3949 114.173 65.6936 89.189 75.1373 74.7122C79.2192 68.454 103.973 30.6537 107.093 24.5972L107.609 23.9348L108.542 22.8521L108.907 21.8611C112.31 16.7363 110.606 14.7657 107.653 10.9372C105.612 8.29218 102.521 3.17879 100.613 1.93604L99.8681 2.46002V2.45945Z" fill="#0A4E96"/>
<path fill-rule="evenodd" clip-rule="evenodd" d="M373.079 85.0996L373.394 86.1977L374.38 87.2144C375.735 88.2874 375.646 87.7002 375.911 89.6577C377.136 89.4567 376.884 89.2397 376.506 90.442C377.3 90.9962 377.447 88.8689 377.24 91.7548C378.564 91.4774 378.252 91.2918 377.827 92.6091L378.593 93.7955C379.949 93.5284 379.614 93.3387 379.198 94.7016L379.984 96.072C380.719 99.6333 404.959 136.534 409.48 143.596C419.141 158.683 427.91 179.286 452.041 178.329C451.144 172.919 410.373 112.817 401.96 99.8538C399.745 96.4399 386.717 75.5592 384.978 74.4765C383.27 74.4765 383.482 74.9258 384.017 73.3721C383.231 72.9028 383.295 74.7891 383.246 72.1664C382.047 72.5406 382.513 72.5696 382.771 71.1856L381.684 70.1695C381.599 70.0938 381.372 69.8956 381.296 69.8267C381.218 69.7572 381.03 69.6017 380.901 69.4844C379.319 70.636 379.607 70.0323 377.899 72.9672C374.758 78.3659 370.705 82.1773 373.079 85.1008L373.079 85.0996Z" fill="#1C7C33"/>
<path fill-rule="evenodd" clip-rule="evenodd" d="M364.818 142.47L365.101 128.556L350.948 128.411C350.754 130.872 350.791 132.981 350.773 135.282C350.765 136.391 350.694 137.728 350.709 138.788C350.759 142.364 350.089 143.762 364.818 142.47V142.47Z" fill="#0A4E96"/>
<path fill-rule="evenodd" clip-rule="evenodd" d="M94.2781 69.6971L94.2861 72.4292L94.3145 78.0102L108.367 78.2261L108.459 64.0096L104.912 63.9424L104.229 63.9526L94.294 63.9868L94.2781 69.6971Z" fill="#0A4E96"/>
<path fill-rule="evenodd" clip-rule="evenodd" d="M115.067 78.007L129.1 78.1796L129.208 64.0127L115.043 64.0138L115.067 78.007Z" fill="#0A4E96"/>
<path fill-rule="evenodd" clip-rule="evenodd" d="M371.69 142.467L385.724 142.456L385.823 128.413L371.916 128.354L371.69 142.467Z" fill="#0A4E96"/>
<path fill-rule="evenodd" clip-rule="evenodd" d="M350.879 162.498L363.099 162.751C365.011 162.392 364.098 162.586 364.861 162.169L365.001 149.448L361.13 148.753C349.567 148.276 350.849 148.46 350.814 152.963C350.79 156.063 350.688 159.43 350.88 162.498H350.879Z" fill="#0A4E96"/>
<path fill-rule="evenodd" clip-rule="evenodd" d="M371.697 162.746L385.744 162.843L385.766 148.895L371.973 148.773L371.697 162.746Z" fill="#0A4E96"/>
<path fill-rule="evenodd" clip-rule="evenodd" d="M115.037 98.3882L129.035 98.5551L129.133 84.6399L115.211 84.5391L115.037 98.3882Z" fill="#0A4E96"/>
<path fill-rule="evenodd" clip-rule="evenodd" d="M95.0841 98.1457L108.332 98.5837L108.399 84.6155L94.4775 84.562L94.4211 96.322C94.6922 97.5727 94.7446 97.554 95.0847 98.1457H95.0841Z" fill="#0A4E96"/>
</svg>
